<?xml version="1.0" encoding="UTF-8"?>
<svg version="1.1" xmlns="http://www.w3.org/2000/svg" width="2000" height="2000">
<path d="M0 0 C2.80712891 1.32836914 2.80712891 1.32836914 5.7265625 3.03515625 C7.37615967 3.98950562 7.37615967 3.98950562 9.05908203 4.96313477 C10.24777228 5.66283666 11.43641017 6.36262753 12.625 7.0625 C13.87167017 7.78734596 15.11891414 8.51120584 16.36669922 9.23413086 C18.95892024 10.73695479 21.54862203 12.24399172 24.13671875 13.75390625 C30.1085086 17.23258975 36.11932267 20.64279965 42.125 24.0625 C52.17325897 29.79654372 62.19829042 35.5703758 72.21582031 41.35791016 C83.611459 47.93788357 95.03889357 54.46191372 106.46777344 60.98388672 C112.89603046 64.65251603 119.32147645 68.32606773 125.74743652 71.99871826 C127.4956693 72.99787414 129.24392088 73.99699709 130.9921875 74.99609375 C131.56928467 75.32589233 132.14638184 75.65569092 132.7409668 75.9954834 C136.26048502 78.0066016 139.78065826 80.01656815 143.30133057 82.02566528 C156.29103355 89.43839663 169.26572044 96.87611088 182.21582031 104.35791016 C193.611459 110.93788357 205.03889357 117.46191372 216.46777344 123.98388672 C222.89603046 127.65251603 229.32147645 131.32606773 235.74743652 134.99871826 C237.4956693 135.99787414 239.24392088 136.99699709 240.9921875 137.99609375 C241.56928467 138.32589233 242.14638184 138.65569092 242.7409668 138.9954834 C246.26048502 141.0066016 249.78065826 143.01656815 253.30133057 145.02566528 C266.28021403 152.43222233 279.2461162 159.86029945 292.18286133 167.34033203 C297.91020635 170.64938712 303.64574919 173.94322088 309.39453125 177.21484375 C310.01528534 177.56837921 310.63603943 177.92191467 311.27560425 178.28616333 C314.25701869 179.98397198 317.23963195 181.67954959 320.22460938 183.37109375 C322.34047967 184.57514561 324.44681834 185.7961934 326.5405823 187.03828859 C329.94078728 189.03464222 329.94078728 189.03464222 333.41857278 190.55213118 C342.2566763 194.9381641 342.2566763 194.9381641 344.20442319 200.34083652 C344.68470856 204.62881828 344.73594531 208.74980149 344.65078735 213.05578613 C344.66577576 214.70284357 344.68642912 216.34985751 344.71224153 217.99678087 C344.76646439 222.51367655 344.73972354 227.02699785 344.69942069 231.5439055 C344.66999514 236.41810075 344.71541242 241.29168295 344.75115967 246.16575623 C344.80896801 255.71027172 344.79648148 265.25345839 344.75879534 274.79802597 C344.72943598 282.55483842 344.72545443 290.31127842 344.73960495 298.06813049 C344.74259299 299.72409364 344.74259299 299.72409364 344.7456414 301.41351059 C344.74979783 303.65621558 344.7540126 305.89892046 344.75828509 308.14162523 C344.79535561 329.1717396 344.75273293 350.20111732 344.68288033 371.23111087 C344.6247985 389.27602486 344.63488683 407.31985172 344.69482422 425.36474609 C344.76439436 446.3195147 344.79178506 467.27363765 344.75186479 488.22850561 C344.74772365 490.46296014 344.74363683 492.69741478 344.73960495 494.93186951 C344.73759937 496.0312639 344.73559379 497.1306583 344.73352743 498.26336768 C344.72230271 506.01090558 344.74124871 513.75803395 344.77183914 521.50550842 C344.80830067 530.94747462 344.7984372 540.38803603 344.72918947 549.82984126 C344.69501869 554.64775813 344.68163995 559.46333329 344.72462845 564.28123283 C344.7633991 568.69314597 344.74206226 573.10055073 344.67292027 577.51205486 C344.65840802 579.1067878 344.6657719 580.70190245 344.69730552 582.29638964 C344.78501102 587.09994574 344.6526258 591.42247863 343 596 C339.04199647 599.74489939 334.97632339 601.76031212 330 604 C328.02525759 605.09959597 326.05858394 606.21399495 324.10546875 607.3515625 C322.13400323 608.44485826 320.16131145 609.53594524 318.1875 610.625 C309.80073384 615.2867611 301.46424776 620.02056193 293.1875 624.875 C284.57097604 629.92692259 275.92579446 634.92566797 267.25 639.875 C266.66568207 640.20836365 266.08136414 640.54172729 265.4793396 640.88519287 C262.5080802 642.5800349 259.53636728 644.27407984 256.56445312 645.96777344 C251.28906705 648.97470744 246.01765562 651.98859617 240.74597168 655.00201416 C237.83081342 656.6682993 234.91539337 658.33412627 232 660 C230.83333208 660.66666448 229.66666541 661.33333114 228.5 662 C226.16666667 663.33333333 223.83333333 664.66666667 221.5 666 C220.92251007 666.32999496 220.34502014 666.65998993 219.75003052 666.99998474 C218.58326463 667.66670665 217.41649624 668.33342418 216.24972534 669.00013733 C213.33455622 670.66592284 210.41943053 672.33178427 207.50439453 673.99780273 C202.23656805 677.00840313 196.96842441 680.01844147 191.69866943 683.02566528 C179.78423855 689.82477958 167.87811196 696.63753173 156 703.5 C143.53397777 710.70212794 131.03638756 717.84829676 118.53222656 724.98388672 C115.01819321 726.98935814 111.50505031 728.99638531 107.9921875 731.00390625 C107.12640579 731.4986721 107.12640579 731.4986721 106.24313354 732.00343323 C103.33175915 733.66725359 100.42048712 735.33125294 97.50927734 736.99536133 C92.22346172 740.01661253 86.9370188 743.03673805 81.64738464 746.05130005 C78.68116606 747.74179075 75.7154488 749.43315935 72.75 751.125 C72.1670517 751.45755798 71.58410339 751.79011597 70.98348999 752.13275146 C62.89754046 756.74788039 54.84426213 761.41620076 46.8125 766.125 C37.51434339 771.57561672 28.14372248 776.88571834 18.72192383 782.11962891 C17.27402466 782.924729 17.27402466 782.924729 15.796875 783.74609375 C14.84876953 784.26929199 13.90066406 784.79249023 12.92382812 785.33154297 C10.85967562 786.5094336 8.82387493 787.73768898 6.81054688 789.00048828 C5.76447266 789.65130371 4.71839844 790.30211914 3.640625 790.97265625 C2.70250977 791.574729 1.76439453 792.17680176 0.79785156 792.79711914 C-2.7134405 794.30672961 -4.35779275 794.06514591 -8 793 C-10.80712891 791.67163086 -10.80712891 791.67163086 -13.7265625 789.96484375 C-14.82629395 789.32861084 -15.92602539 788.69237793 -17.05908203 788.03686523 C-18.24777228 787.33716334 -19.43641017 786.63737247 -20.625 785.9375 C-21.87167017 785.21265404 -23.11891414 784.48879416 -24.36669922 783.76586914 C-26.95892024 782.26304521 -29.54862203 780.75600828 -32.13671875 779.24609375 C-38.1085086 775.76741025 -44.11932267 772.35720035 -50.125 768.9375 C-60.17325897 763.20345628 -70.19829042 757.4296242 -80.21582031 751.64208984 C-91.611459 745.06211643 -103.03889357 738.53808628 -114.46777344 732.01611328 C-120.89603046 728.34748397 -127.32147645 724.67393227 -133.74743652 721.00128174 C-135.4956693 720.00212586 -137.24392088 719.00300291 -138.9921875 718.00390625 C-139.56928467 717.67410767 -140.14638184 717.34430908 -140.7409668 717.0045166 C-144.26048502 714.9933984 -147.78065826 712.98343185 -151.30133057 710.97433472 C-164.29103355 703.56160337 -177.26572044 696.12388912 -190.21582031 688.64208984 C-201.611459 682.06211643 -213.03889357 675.53808628 -224.46777344 669.01611328 C-230.89603046 665.34748397 -237.32147645 661.67393227 -243.74743652 658.00128174 C-245.4956693 657.00212586 -247.24392088 656.00300291 -248.9921875 655.00390625 C-249.85783325 654.50920837 -249.85783325 654.50920837 -250.7409668 654.0045166 C-254.26048502 651.9933984 -257.78065826 649.98343185 -261.30133057 647.97433472 C-274.28021403 640.56777767 -287.2461162 633.13970055 -300.18286133 625.65966797 C-305.91020635 622.35061288 -311.64574919 619.05677912 -317.39453125 615.78515625 C-318.01528534 615.43162079 -318.63603943 615.07808533 -319.27560425 614.71383667 C-322.25701869 613.01602802 -325.23963195 611.32045041 -328.22460938 609.62890625 C-330.34047967 608.42485439 -332.44681834 607.2038066 -334.5405823 605.96171141 C-337.94078728 603.96535778 -337.94078728 603.96535778 -341.41857278 602.44786882 C-350.2566763 598.0618359 -350.2566763 598.0618359 -352.20442319 592.65916348 C-352.68470856 588.37118172 -352.73594531 584.25019851 -352.65078735 579.94421387 C-352.66577576 578.29715643 -352.68642912 576.65014249 -352.71224153 575.00321913 C-352.76646439 570.48632345 -352.73972354 565.97300215 -352.69942069 561.4560945 C-352.66999514 556.58189925 -352.71541242 551.70831705 -352.75115967 546.83424377 C-352.80896801 537.28972828 -352.79648148 527.74654161 -352.75879534 518.20197403 C-352.72943598 510.44516158 -352.72545443 502.68872158 -352.73960495 494.93186951 C-352.74259299 493.27590636 -352.74259299 493.27590636 -352.7456414 491.58648941 C-352.74979783 489.34378442 -352.7540126 487.10107954 -352.75828509 484.85837477 C-352.79535561 463.8282604 -352.75273293 442.79888268 -352.68288033 421.76888913 C-352.6247985 403.72397514 -352.63488683 385.68014828 -352.69482422 367.63525391 C-352.76439436 346.6804853 -352.79178506 325.72636235 -352.75186479 304.77149439 C-352.74772365 302.53703986 -352.74363683 300.30258522 -352.73960495 298.06813049 C-352.73759937 296.9687361 -352.73559379 295.8693417 -352.73352743 294.73663232 C-352.72230271 286.98909442 -352.74124871 279.24196605 -352.77183914 271.49449158 C-352.80830067 262.05252538 -352.7984372 252.61196397 -352.72918947 243.17015874 C-352.69501869 238.35224187 -352.68163995 233.53666671 -352.72462845 228.71876717 C-352.7633991 224.30685403 -352.74206226 219.89944927 -352.67292027 215.48794514 C-352.65840802 213.8932122 -352.6657719 212.29809755 -352.69730552 210.70361036 C-352.78501102 205.90005426 -352.6526258 201.57752137 -351 197 C-347.04199647 193.25510061 -342.97632339 191.23968788 -338 189 C-336.02525759 187.90040403 -334.05858394 186.78600505 -332.10546875 185.6484375 C-330.13400323 184.55514174 -328.16131145 183.46405476 -326.1875 182.375 C-317.80073384 177.7132389 -309.46424776 172.97943807 -301.1875 168.125 C-292.57097604 163.07307741 -283.92579446 158.07433203 -275.25 153.125 C-274.3735231 152.62495453 -274.3735231 152.62495453 -273.4793396 152.11480713 C-270.5080802 150.4199651 -267.53636728 148.72592016 -264.56445312 147.03222656 C-259.28888953 144.02519137 -254.0172894 141.01122063 -248.74542236 137.99771118 C-245.83299369 136.33292064 -242.92042775 134.66837035 -240.0078125 133.00390625 C-239.14215164 132.50920082 -239.14215164 132.50920082 -238.25900269 132.00450134 C-234.73949621 129.99338547 -231.21933188 127.98342622 -227.69866943 125.97433472 C-215.78423855 119.17522042 -203.87811196 112.36246827 -192 105.5 C-179.53397777 98.29787206 -167.03638756 91.15170324 -154.53222656 84.01611328 C-151.01819321 82.01064186 -147.50504842 80.003618 -143.9921875 77.99609375 C-143.41509033 77.66629517 -142.83799316 77.33649658 -142.2434082 76.9967041 C-140.49559043 75.99782905 -138.74779145 74.99892111 -137 74 C-130.56703896 70.32334818 -124.13405828 66.64673593 -117.69866943 62.97433472 C-105.78423855 56.17522042 -93.87811196 49.36246827 -82 42.5 C-70.15352532 35.65580987 -58.27922584 28.8610011 -46.39649963 22.08004761 C-40.10709301 18.49094431 -33.81997444 14.89783993 -27.53289795 11.30465698 C-18.91866698 6.38156772 -18.91866698 6.38156772 -15.72802734 4.57617188 C-14.08764655 3.62840935 -12.46203667 2.6532769 -10.86962891 1.62695312 C-6.73596737 -1.01515777 -4.71217662 -1.16486896 0 0 Z " fill="#DBEDE1" transform="translate(1409,135)"/>
<path d="M0 0 C2.80712891 1.32836914 2.80712891 1.32836914 5.7265625 3.03515625 C7.37615967 3.98950562 7.37615967 3.98950562 9.05908203 4.96313477 C10.24777228 5.66283666 11.43641017 6.36262753 12.625 7.0625 C13.87167017 7.78734596 15.11891414 8.51120584 16.36669922 9.23413086 C18.95892024 10.73695479 21.54862203 12.24399172 24.13671875 13.75390625 C30.1085086 17.23258975 36.11932267 20.64279965 42.125 24.0625 C52.17325897 29.79654372 62.19829042 35.5703758 72.21582031 41.35791016 C83.611459 47.93788357 95.03889357 54.46191372 106.46777344 60.98388672 C112.89603046 64.65251603 119.32147645 68.32606773 125.74743652 71.99871826 C127.4956693 72.99787414 129.24392088 73.99699709 130.9921875 74.99609375 C131.56928467 75.32589233 132.14638184 75.65569092 132.7409668 75.9954834 C136.26048502 78.0066016 139.78065826 80.01656815 143.30133057 82.02566528 C156.29103355 89.43839663 169.26572044 96.87611088 182.21582031 104.35791016 C193.611459 110.93788357 205.03889357 117.46191372 216.46777344 123.98388672 C222.89603046 127.65251603 229.32147645 131.32606773 235.74743652 134.99871826 C237.4956693 135.99787414 239.24392088 136.99699709 240.9921875 137.99609375 C241.56928467 138.32589233 242.14638184 138.65569092 242.7409668 138.9954834 C246.26048502 141.0066016 249.78065826 143.01656815 253.30133057 145.02566528 C266.28021403 152.43222233 279.2461162 159.86029945 292.18286133 167.34033203 C297.91020635 170.64938712 303.64574919 173.94322088 309.39453125 177.21484375 C310.01528534 177.56837921 310.63603943 177.92191467 311.27560425 178.28616333 C314.25701869 179.98397198 317.23963195 181.67954959 320.22460938 183.37109375 C322.34047967 184.57514561 324.44681834 185.7961934 326.5405823 187.03828859 C329.94078728 189.03464222 329.94078728 189.03464222 333.41857278 190.55213118 C342.2566763 194.9381641 342.2566763 194.9381641 344.20442319 200.34083652 C344.68470856 204.62881828 344.73594531 208.74980149 344.65078735 213.05578613 C344.66577576 214.70284357 344.68642912 216.34985751 344.71224153 217.99678087 C344.76646439 222.51367655 344.73972354 227.02699785 344.69942069 231.5439055 C344.66999514 236.41810075 344.71541242 241.29168295 344.75115967 246.16575623 C344.80896801 255.71027172 344.79648148 265.25345839 344.75879534 274.79802597 C344.72943598 282.55483842 344.72545443 290.31127842 344.73960495 298.06813049 C344.74259299 299.72409364 344.74259299 299.72409364 344.7456414 301.41351059 C344.74979783 303.65621558 344.7540126 305.89892046 344.75828509 308.14162523 C344.79535561 329.1717396 344.75273293 350.20111732 344.68288033 371.23111087 C344.6247985 389.27602486 344.63488683 407.31985172 344.69482422 425.36474609 C344.76439436 446.3195147 344.79178506 467.27363765 344.75186479 488.22850561 C344.74772365 490.46296014 344.74363683 492.69741478 344.73960495 494.93186951 C344.73759937 496.0312639 344.73559379 497.1306583 344.73352743 498.26336768 C344.72230271 506.01090558 344.74124871 513.75803395 344.77183914 521.50550842 C344.80830067 530.94747462 344.7984372 540.38803603 344.72918947 549.82984126 C344.69501869 554.64775813 344.68163995 559.46333329 344.72462845 564.28123283 C344.7633991 568.69314597 344.74206226 573.10055073 344.67292027 577.51205486 C344.65840802 579.1067878 344.6657719 580.70190245 344.69730552 582.29638964 C344.78501102 587.09994574 344.6526258 591.42247863 343 596 C339.04199647 599.74489939 334.97632339 601.76031212 330 604 C328.02525759 605.09959597 326.05858394 606.21399495 324.10546875 607.3515625 C322.13400323 608.44485826 320.16131145 609.53594524 318.1875 610.625 C309.80073384 615.2867611 301.46424776 620.02056193 293.1875 624.875 C284.57097604 629.92692259 275.92579446 634.92566797 267.25 639.875 C266.66568207 640.20836365 266.08136414 640.54172729 265.4793396 640.88519287 C262.5080802 642.5800349 259.53636728 644.27407984 256.56445312 645.96777344 C251.28906705 648.97470744 246.01765562 651.98859617 240.74597168 655.00201416 C237.83081342 656.6682993 234.91539337 658.33412627 232 660 C230.83333208 660.66666448 229.66666541 661.33333114 228.5 662 C226.16666667 663.33333333 223.83333333 664.66666667 221.5 666 C220.63378021 666.49498489 220.63378021 666.49498489 219.75006104 666.99996948 C218.58319593 667.66674664 217.41632581 668.33351503 216.24945068 669.00027466 C213.33577909 670.66517906 210.42219422 672.33023486 207.50878906 673.99560547 C202.22315109 677.01680142 196.93686097 680.03682799 191.64738464 683.05130005 C188.68116606 684.74179075 185.7154488 686.43315935 182.75 688.125 C182.1670517 688.45755798 181.58410339 688.79011597 180.98348999 689.13275146 C172.89754031 693.74788047 164.84427229 698.41621812 156.8125 703.125 C147.724328 708.45228942 138.55943841 713.62763538 129.35473633 718.75048828 C122.18590793 722.74985179 115.0788197 726.8436288 108 731 C99.88580901 735.76429563 91.72190812 740.42411851 83.5 745 C74.34793301 750.09543298 65.27304886 755.30675844 56.23706055 760.60498047 C47.28259978 765.85049731 38.28585085 771.02030772 29.26000977 776.1418457 C23.73126637 779.28121148 18.22362289 782.44693603 12.76953125 785.71484375 C11.81135498 786.28251465 10.85317871 786.85018555 9.8659668 787.43505859 C8.09233343 788.48814847 6.32624679 789.55409914 4.56958008 790.63525391 C3.78607178 791.09722168 3.00256348 791.55918945 2.1953125 792.03515625 C1.52516113 792.4412915 0.85500977 792.84742676 0.16455078 793.26586914 C-3.85442218 794.62894738 -7.08519748 793.4328962 -10.80712891 791.67163086 C-11.77054199 791.10839111 -12.73395508 790.54515137 -13.7265625 789.96484375 C-14.82629395 789.32861084 -15.92602539 788.69237793 -17.05908203 788.03686523 C-18.24777228 787.33716334 -19.43641017 786.63737247 -20.625 785.9375 C-21.87167017 785.21265404 -23.11891414 784.48879416 -24.36669922 783.76586914 C-26.95892024 782.26304521 -29.54862203 780.75600828 -32.13671875 779.24609375 C-38.1085086 775.76741025 -44.11932267 772.35720035 -50.125 768.9375 C-60.17325897 763.20345628 -70.19829042 757.4296242 -80.21582031 751.64208984 C-91.611459 745.06211643 -103.03889357 738.53808628 -114.46777344 732.01611328 C-120.89603046 728.34748397 -127.32147645 724.67393227 -133.74743652 721.00128174 C-135.4956693 720.00212586 -137.24392088 719.00300291 -138.9921875 718.00390625 C-139.56928467 717.67410767 -140.14638184 717.34430908 -140.7409668 717.0045166 C-144.26048502 714.9933984 -147.78065826 712.98343185 -151.30133057 710.97433472 C-164.29103355 703.56160337 -177.26572044 696.12388912 -190.21582031 688.64208984 C-201.611459 682.06211643 -213.03889357 675.53808628 -224.46777344 669.01611328 C-230.89603046 665.34748397 -237.32147645 661.67393227 -243.74743652 658.00128174 C-245.4956693 657.00212586 -247.24392088 656.00300291 -248.9921875 655.00390625 C-249.85783325 654.50920837 -249.85783325 654.50920837 -250.7409668 654.0045166 C-254.26048502 651.9933984 -257.78065826 649.98343185 -261.30133057 647.97433472 C-274.28021403 640.56777767 -287.2461162 633.13970055 -300.18286133 625.65966797 C-305.91020635 622.35061288 -311.64574919 619.05677912 -317.39453125 615.78515625 C-318.01528534 615.43162079 -318.63603943 615.07808533 -319.27560425 614.71383667 C-322.25701869 613.01602802 -325.23963195 611.32045041 -328.22460938 609.62890625 C-330.34047967 608.42485439 -332.44681834 607.2038066 -334.5405823 605.96171141 C-337.94078728 603.96535778 -337.94078728 603.96535778 -341.41857278 602.44786882 C-350.2566763 598.0618359 -350.2566763 598.0618359 -352.20442319 592.65916348 C-352.68470856 588.37118172 -352.73594531 584.25019851 -352.65078735 579.94421387 C-352.66577576 578.29715643 -352.68642912 576.65014249 -352.71224153 575.00321913 C-352.76646439 570.48632345 -352.73972354 565.97300215 -352.69942069 561.4560945 C-352.66999514 556.58189925 -352.71541242 551.70831705 -352.75115967 546.83424377 C-352.80896801 537.28972828 -352.79648148 527.74654161 -352.75879534 518.20197403 C-352.72943598 510.44516158 -352.72545443 502.68872158 -352.73960495 494.93186951 C-352.74259299 493.27590636 -352.74259299 493.27590636 -352.7456414 491.58648941 C-352.74979783 489.34378442 -352.7540126 487.10107954 -352.75828509 484.85837477 C-352.79535561 463.8282604 -352.75273293 442.79888268 -352.68288033 421.76888913 C-352.6247985 403.72397514 -352.63488683 385.68014828 -352.69482422 367.63525391 C-352.76439436 346.6804853 -352.79178506 325.72636235 -352.75186479 304.77149439 C-352.74772365 302.53703986 -352.74363683 300.30258522 -352.73960495 298.06813049 C-352.73759937 296.9687361 -352.73559379 295.8693417 -352.73352743 294.73663232 C-352.72230271 286.98909442 -352.74124871 279.24196605 -352.77183914 271.49449158 C-352.80830067 262.05252538 -352.7984372 252.61196397 -352.72918947 243.17015874 C-352.69501869 238.35224187 -352.68163995 233.53666671 -352.72462845 228.71876717 C-352.7633991 224.30685403 -352.74206226 219.89944927 -352.67292027 215.48794514 C-352.65840802 213.8932122 -352.6657719 212.29809755 -352.69730552 210.70361036 C-352.78501102 205.90005426 -352.6526258 201.57752137 -351 197 C-347.04199647 193.25510061 -342.97632339 191.23968788 -338 189 C-336.02525759 187.90040403 -334.05858394 186.78600505 -332.10546875 185.6484375 C-330.13400323 184.55514174 -328.16131145 183.46405476 -326.1875 182.375 C-317.80073384 177.7132389 -309.46424776 172.97943807 -301.1875 168.125 C-292.57097604 163.07307741 -283.92579446 158.07433203 -275.25 153.125 C-274.3735231 152.62495453 -274.3735231 152.62495453 -273.4793396 152.11480713 C-270.5080802 150.4199651 -267.53636728 148.72592016 -264.56445312 147.03222656 C-259.28888953 144.02519137 -254.0172894 141.01122063 -248.74542236 137.99771118 C-245.83299369 136.33292064 -242.92042775 134.66837035 -240.0078125 133.00390625 C-239.14215164 132.50920082 -239.14215164 132.50920082 -238.25900269 132.00450134 C-234.73949621 129.99338547 -231.21933188 127.98342622 -227.69866943 125.97433472 C-215.78423855 119.17522042 -203.87811196 112.36246827 -192 105.5 C-179.53397777 98.29787206 -167.03638756 91.15170324 -154.53222656 84.01611328 C-151.01819321 82.01064186 -147.50504842 80.003618 -143.9921875 77.99609375 C-143.41509033 77.66629517 -142.83799316 77.33649658 -142.2434082 76.9967041 C-140.49559043 75.99782905 -138.74779145 74.99892111 -137 74 C-130.56703896 70.32334818 -124.13405828 66.64673593 -117.69866943 62.97433472 C-105.78423855 56.17522042 -93.87811196 49.36246827 -82 42.5 C-70.15352532 35.65580987 -58.27922584 28.8610011 -46.39649963 22.08004761 C-40.10709301 18.49094431 -33.81997444 14.89783993 -27.53289795 11.30465698 C-18.91866698 6.38156772 -18.91866698 6.38156772 -15.72802734 4.57617188 C-14.08764655 3.62840935 -12.46203667 2.6532769 -10.86962891 1.62695312 C-6.73596737 -1.01515777 -4.71217662 -1.16486896 0 0 Z " fill="#DBEDE1" transform="translate(599,135)"/>
<path d="M0 0 C2.80712891 1.32836914 2.80712891 1.32836914 5.7265625 3.03515625 C7.37615967 3.98950562 7.37615967 3.98950562 9.05908203 4.96313477 C10.24777228 5.66283666 11.43641017 6.36262753 12.625 7.0625 C13.87167017 7.78734596 15.11891414 8.51120584 16.36669922 9.23413086 C18.95892024 10.73695479 21.54862203 12.24399172 24.13671875 13.75390625 C30.1085086 17.23258975 36.11932267 20.64279965 42.125 24.0625 C52.17325897 29.79654372 62.19829042 35.5703758 72.21582031 41.35791016 C83.611459 47.93788357 95.03889357 54.46191372 106.46777344 60.98388672 C109.98180679 62.98935814 113.49494969 64.99638531 117.0078125 67.00390625 C117.58500031 67.33375015 118.16218811 67.66359406 118.75686646 68.00343323 C121.66824085 69.66725359 124.57951288 71.33125294 127.49072266 72.99536133 C132.77653828 76.01661253 138.0629812 79.03673805 143.35261536 82.05130005 C146.31883394 83.74179075 149.2845512 85.43315935 152.25 87.125 C152.8329483 87.45755798 153.41589661 87.79011597 154.01651001 88.13275146 C162.10245969 92.74788047 170.15572771 97.41621812 178.1875 102.125 C187.275672 107.45228942 196.44056159 112.62763538 205.64526367 117.75048828 C213.82050338 122.311311 221.90802456 127.01021626 229.98046875 131.75 C237.10528525 135.92244156 244.28553837 139.98481022 251.5 144 C260.65579819 149.09751033 269.73445075 154.31084796 278.77392578 159.61157227 C286.44487041 164.10551617 294.15170249 168.53436544 301.875 172.9375 C310.90570458 178.08822405 319.93276321 183.24502587 328.94219971 188.43289185 C330.65793208 189.42048048 332.37461231 190.40642184 334.09130859 191.39233398 C335.62972412 192.27900757 335.62972412 192.27900757 337.19921875 193.18359375 C338.10502686 193.70493896 339.01083496 194.22628418 339.9440918 194.76342773 C342 196 342 196 343 197 C343.10975255 199.10849122 343.14770181 201.22071865 343.15936089 203.3320322 C343.16693378 204.34065946 343.16693378 204.34065946 343.17465967 205.36966303 C343.19049547 207.65110716 343.19909755 209.93252254 343.20773315 212.21400452 C343.21746703 213.85496376 343.22760577 215.49592065 343.23811734 217.13687509 C343.26572795 221.66838196 343.28678488 226.19989946 343.30663323 230.73144615 C343.32439808 234.61286105 343.34582475 238.49425252 343.36717294 242.3756491 C343.56844498 279.16244722 343.67201309 315.94982337 343.75568962 352.73705387 C343.76677836 357.52709564 343.77807057 362.31713688 343.78955078 367.10717773 C343.79239532 368.29776904 343.79523985 369.48836035 343.79817058 370.71503019 C343.84565227 390.00272579 343.94196022 409.28987369 344.05712186 428.57727093 C344.17429956 448.36610062 344.24234769 468.15464538 344.26382077 487.94381326 C344.277235 499.06018182 344.31308713 510.1755306 344.405056 521.29155159 C344.48337234 530.75905716 344.51800047 540.22542397 344.4950311 549.69324888 C344.48470545 554.52546835 344.49557327 559.35521352 344.56312943 564.18702507 C344.62452065 568.61187682 344.62582991 573.03254669 344.57947291 577.4575439 C344.57328576 579.05731577 344.58908721 580.65735632 344.62916015 582.25663818 C344.74262756 587.0706238 344.63571322 591.40436869 343 596 C339.04468893 599.75304287 334.98125312 601.7624372 330 604 C328.02516291 605.09942592 326.05846852 606.21379681 324.10546875 607.3515625 C322.13400323 608.44485826 320.16131145 609.53594524 318.1875 610.625 C309.80073384 615.2867611 301.46424776 620.02056193 293.1875 624.875 C284.57097604 629.92692259 275.92579446 634.92566797 267.25 639.875 C266.66568207 640.20836365 266.08136414 640.54172729 265.4793396 640.88519287 C262.5080802 642.5800349 259.53636728 644.27407984 256.56445312 645.96777344 C251.28906705 648.97470744 246.01765562 651.98859617 240.74597168 655.00201416 C237.83081342 656.6682993 234.91539337 658.33412627 232 660 C230.83333208 660.66666448 229.66666541 661.33333114 228.5 662 C226.16666667 663.33333333 223.83333333 664.66666667 221.5 666 C220.63378021 666.49498489 220.63378021 666.49498489 219.75006104 666.99996948 C218.58319593 667.66674664 217.41632581 668.33351503 216.24945068 669.00027466 C213.33577909 670.66517906 210.42219422 672.33023486 207.50878906 673.99560547 C202.22315109 677.01680142 196.93686097 680.03682799 191.64738464 683.05130005 C188.68116606 684.74179075 185.7154488 686.43315935 182.75 688.125 C182.1670517 688.45755798 181.58410339 688.79011597 180.98348999 689.13275146 C172.89754031 693.74788047 164.84427229 698.41621812 156.8125 703.125 C147.724328 708.45228942 138.55943841 713.62763538 129.35473633 718.75048828 C121.18465814 723.30843148 113.10197658 728.00392779 105.03491211 732.74121094 C97.76035222 737.00176033 90.42759604 741.14818919 83.0625 745.25 C75.55968876 749.42908472 68.10071979 753.66085884 60.71630859 758.04541016 C52.90006176 762.67513304 45.00843334 767.17391261 37.10766602 771.6574707 C31.42524683 774.88470158 25.75667761 778.12926469 20.13624573 781.46362305 C17.58531937 782.97573199 15.02738616 784.47575918 12.46890259 785.97503662 C11.24869333 786.69466948 10.03195568 787.42022454 8.81893921 788.1519165 C7.13046579 789.16972048 5.42874128 790.1654428 3.7265625 791.16015625 C2.76314941 791.73386963 1.79973633 792.30758301 0.80712891 792.89868164 C-2.69082056 794.27102901 -4.41172149 794.03723676 -8 793 C-10.80712891 791.67163086 -10.80712891 791.67163086 -13.7265625 789.96484375 C-14.82613281 789.32869141 -15.92570312 788.69253906 -17.05859375 788.03710938 C-18.24743886 787.33731267 -19.43623971 786.63744078 -20.625 785.9375 C-21.87313121 785.21191491 -23.12184019 784.48732288 -24.37109375 783.76367188 C-26.96481943 782.26018307 -29.55601181 780.75246037 -32.14550781 779.24169922 C-38.07404663 775.78762763 -44.03880117 772.3973013 -50 769 C-52.3285041 767.66993382 -54.65640314 766.33880996 -56.984375 765.0078125 C-61.10569329 762.65226462 -65.22836475 760.29910998 -69.35261536 757.94869995 C-72.31883394 756.25820925 -75.2845512 754.56684065 -78.25 752.875 C-78.8329483 752.54244202 -79.41589661 752.20988403 -80.01651001 751.86724854 C-88.10245969 747.25211953 -96.15572771 742.58378188 -104.1875 737.875 C-113.275672 732.54771058 -122.44056159 727.37236462 -131.64526367 722.24951172 C-139.81534186 717.69156852 -147.89802342 712.99607221 -155.96508789 708.25878906 C-163.23964778 703.99823967 -170.57240396 699.85181081 -177.9375 695.75 C-185.44031124 691.57091528 -192.89928021 687.33914116 -200.28369141 682.95458984 C-206.91954229 679.02403963 -213.61353618 675.19671884 -220.3125 671.375 C-221.20758774 670.86431976 -221.20758774 670.86431976 -222.12075806 670.34332275 C-225.18772965 668.59380922 -228.25514641 666.84507793 -231.32275391 665.09667969 C-236.63817829 662.06666492 -241.94981791 659.03002903 -247.2616272 655.99368286 C-250.17170525 654.33023375 -253.08192204 652.66702746 -255.9921875 651.00390625 C-256.56932999 650.67408249 -257.14647247 650.34425873 -257.74110413 650.00444031 C-261.260575 647.99334478 -264.78070373 645.9834059 -268.30133057 643.97433472 C-281.27508428 636.57070502 -294.23603203 629.1458523 -307.16748047 621.66845703 C-312.98168793 618.30907787 -318.80479267 614.96615259 -324.640625 611.64453125 C-325.27794556 611.28152924 -325.91526611 610.91852722 -326.57189941 610.54452515 C-329.65964792 608.78601903 -332.74862611 607.02974437 -335.83984375 605.27734375 C-336.94972656 604.64570312 -338.05960938 604.0140625 -339.203125 603.36328125 C-340.17926758 602.80938721 -341.15541016 602.25549316 -342.16113281 601.68481445 C-343.56637207 600.8508313 -343.56637207 600.8508313 -345 600 C-346.54886327 599.16519368 -346.54886327 599.16519368 -348.1290167 598.31352258 C-351 596 -351 596 -351.76014966 592.95401168 C-351.76491828 591.74779985 -351.7696869 590.54158802 -351.77460003 589.29882431 C-351.78541785 588.6229446 -351.79623567 587.9470649 -351.8073813 587.25070399 C-351.83640975 584.97482847 -351.82255931 582.70122364 -351.80900574 580.42523193 C-351.82092687 578.78166568 -351.83544239 577.13811653 -351.85233575 575.49459386 C-351.89107244 570.96967696 -351.89211003 566.44540825 -351.88696134 561.92035699 C-351.8877924 557.04349622 -351.9229149 552.16686434 -351.9533844 547.29011536 C-352.00713413 537.73208417 -352.02728819 528.17426455 -352.03408369 518.61609498 C-352.03966329 510.84782312 -352.05434392 503.07962326 -352.07546425 495.31137848 C-352.13407429 473.2958305 -352.16635239 451.28045701 -352.16667839 429.26483068 C-352.16670138 428.07738284 -352.16672436 426.88993501 -352.16674805 425.66650391 C-352.16677359 423.8831617 -352.16677359 423.8831617 -352.16679964 422.06379238 C-352.16871612 402.79562022 -352.23401455 383.52824629 -352.3277994 364.26032254 C-352.4232919 344.48488838 -352.47032746 324.70984631 -352.46717244 304.93417573 C-352.46642863 293.82800479 -352.4859793 282.72271274 -352.55788231 271.61675262 C-352.61875781 262.16019829 -352.63484802 252.70489041 -352.59259709 243.24821153 C-352.57233551 238.42211996 -352.5731005 233.59844715 -352.63042068 228.77260017 C-352.68238698 224.35329727 -352.67426032 219.9383122 -352.61840931 215.51909426 C-352.60875315 213.92148056 -352.6210389 212.32355102 -352.65755405 210.72632548 C-352.76029406 205.91683166 -352.64276029 201.58792788 -351 197 C-347.04355931 193.25039423 -342.97916481 191.23846219 -338 189 C-336.02520294 187.90050219 -334.0585173 186.78611945 -332.10546875 185.6484375 C-330.13400323 184.55514174 -328.16131145 183.46405476 -326.1875 182.375 C-317.80073384 177.7132389 -309.46424776 172.97943807 -301.1875 168.125 C-292.57097604 163.07307741 -283.92579446 158.07433203 -275.25 153.125 C-274.3735231 152.62495453 -274.3735231 152.62495453 -273.4793396 152.11480713 C-270.5080802 150.4199651 -267.53636728 148.72592016 -264.56445312 147.03222656 C-259.28888953 144.02519137 -254.0172894 141.01122063 -248.74542236 137.99771118 C-245.83299369 136.33292064 -242.92042775 134.66837035 -240.0078125 133.00390625 C-239.14215164 132.50920082 -239.14215164 132.50920082 -238.25900269 132.00450134 C-234.73949621 129.99338547 -231.21933188 127.98342622 -227.69866943 125.97433472 C-215.78423855 119.17522042 -203.87811196 112.36246827 -192 105.5 C-179.53397777 98.29787206 -167.03638756 91.15170324 -154.53222656 84.01611328 C-151.01819321 82.01064186 -147.50504842 80.003618 -143.9921875 77.99609375 C-143.41509033 77.66629517 -142.83799316 77.33649658 -142.2434082 76.9967041 C-140.49559043 75.99782905 -138.74779145 74.99892111 -137 74 C-130.56703896 70.32334818 -124.13405828 66.64673593 -117.69866943 62.97433472 C-105.78423855 56.17522042 -93.87811196 49.36246827 -82 42.5 C-70.15352532 35.65580987 -58.27922584 28.8610011 -46.39649963 22.08004761 C-40.10709301 18.49094431 -33.81997444 14.89783993 -27.53289795 11.30465698 C-18.91866698 6.38156772 -18.91866698 6.38156772 -15.72802734 4.57617188 C-14.08764655 3.62840935 -12.46203667 2.6532769 -10.86962891 1.62695312 C-6.73596737 -1.01515777 -4.71217662 -1.16486896 0 0 Z " fill="#DBEDE1" transform="translate(1409,1073)"/>
<path d="M0 0 C2.80712891 1.32836914 2.80712891 1.32836914 5.7265625 3.03515625 C7.37615967 3.98950562 7.37615967 3.98950562 9.05908203 4.96313477 C10.24777228 5.66283666 11.43641017 6.36262753 12.625 7.0625 C13.87167017 7.78734596 15.11891414 8.51120584 16.36669922 9.23413086 C18.95892024 10.73695479 21.54862203 12.24399172 24.13671875 13.75390625 C30.1085086 17.23258975 36.11932267 20.64279965 42.125 24.0625 C52.17325897 29.79654372 62.19829042 35.5703758 72.21582031 41.35791016 C83.611459 47.93788357 95.03889357 54.46191372 106.46777344 60.98388672 C112.89603046 64.65251603 119.32147645 68.32606773 125.74743652 71.99871826 C127.4956693 72.99787414 129.24392088 73.99699709 130.9921875 74.99609375 C131.56928467 75.32589233 132.14638184 75.65569092 132.7409668 75.9954834 C136.26048502 78.0066016 139.78065826 80.01656815 143.30133057 82.02566528 C156.29103355 89.43839663 169.26572044 96.87611088 182.21582031 104.35791016 C193.611459 110.93788357 205.03889357 117.46191372 216.46777344 123.98388672 C219.98180679 125.98935814 223.49494969 127.99638531 227.0078125 130.00390625 C227.87359421 130.4986721 227.87359421 130.4986721 228.75686646 131.00343323 C231.66824085 132.66725359 234.57951288 134.33125294 237.49072266 135.99536133 C242.77653828 139.01661253 248.0629812 142.03673805 253.35261536 145.05130005 C256.31883394 146.74179075 259.2845512 148.43315935 262.25 150.125 C262.8329483 150.45755798 263.41589661 150.79011597 264.01651001 151.13275146 C272.10245915 155.74788017 280.15575789 160.41616709 288.1875 165.125 C297.42099111 170.53818704 306.73453097 175.79460316 316.0847168 181.00317383 C322.42808113 184.54263482 328.73837512 188.13022421 335 191.8125 C335.70632568 192.22725586 336.41265137 192.64201172 337.14038086 193.06933594 C341.86701121 195.86701121 341.86701121 195.86701121 343 197 C343.10975255 199.10849122 343.14770181 201.22071865 343.15936089 203.3320322 C343.16693378 204.34065946 343.16693378 204.34065946 343.17465967 205.36966303 C343.19049547 207.65110716 343.19909755 209.93252254 343.20773315 212.21400452 C343.21746703 213.85496376 343.22760577 215.49592065 343.23811734 217.13687509 C343.26572795 221.66838196 343.28678488 226.19989946 343.30663323 230.73144615 C343.32439808 234.61286105 343.34582475 238.49425252 343.36717294 242.3756491 C343.56844498 279.16244722 343.67201309 315.94982337 343.75568962 352.73705387 C343.76677836 357.52709564 343.77807057 362.31713688 343.78955078 367.10717773 C343.79239532 368.29776904 343.79523985 369.48836035 343.79817058 370.71503019 C343.84565227 390.00272579 343.94196022 409.28987369 344.05712186 428.57727093 C344.17429956 448.36610062 344.24234769 468.15464538 344.26382077 487.94381326 C344.277235 499.06018182 344.31308713 510.1755306 344.405056 521.29155159 C344.48337234 530.75905716 344.51800047 540.22542397 344.4950311 549.69324888 C344.48470545 554.52546835 344.49557327 559.35521352 344.56312943 564.18702507 C344.62452065 568.61187682 344.62582991 573.03254669 344.57947291 577.4575439 C344.57328576 579.05731577 344.58908721 580.65735632 344.62916015 582.25663818 C344.74262756 587.0706238 344.63571322 591.40436869 343 596 C339.04468893 599.75304287 334.98125312 601.7624372 330 604 C328.02516291 605.09942592 326.05846852 606.21379681 324.10546875 607.3515625 C322.13400323 608.44485826 320.16131145 609.53594524 318.1875 610.625 C309.80073384 615.2867611 301.46424776 620.02056193 293.1875 624.875 C284.57097604 629.92692259 275.92579446 634.92566797 267.25 639.875 C266.66568207 640.20836365 266.08136414 640.54172729 265.4793396 640.88519287 C262.5080802 642.5800349 259.53636728 644.27407984 256.56445312 645.96777344 C251.28888953 648.97480863 246.0172894 651.98877937 240.74542236 655.00228882 C237.83299369 656.66707936 234.92042775 658.33162965 232.0078125 659.99609375 C231.43070526 660.32589737 230.85359802 660.65570099 230.25900269 660.99549866 C226.73949621 663.00661453 223.21933188 665.01657378 219.69866943 667.02566528 C207.78423855 673.82477958 195.87811196 680.63753173 184 687.5 C171.53397777 694.70212794 159.03638756 701.84829676 146.53222656 708.98388672 C143.01819321 710.98935814 139.50504842 712.996382 135.9921875 715.00390625 C135.12654175 715.49860413 135.12654175 715.49860413 134.2434082 716.0032959 C132.49559043 717.00217095 130.74779145 718.00107889 129 719 C122.56703896 722.67665182 116.13405828 726.35326407 109.69866943 730.02566528 C97.78423855 736.82477958 85.87811196 743.63753173 74 750.5 C62.15352532 757.34419013 50.27922584 764.1389989 38.39649963 770.91995239 C32.10709301 774.50905569 25.81997444 778.10216007 19.53289795 781.69534302 C10.91866698 786.61843228 10.91866698 786.61843228 7.72802734 788.42382812 C6.08764655 789.37159065 4.46203667 790.3467231 2.86962891 791.37304688 C0.09992357 793.1433584 -1.50447066 794.03802572 -4.8347168 793.7824707 C-8.23781684 792.94121072 -10.70397625 791.73193695 -13.7265625 789.96484375 C-14.82629395 789.32861084 -15.92602539 788.69237793 -17.05908203 788.03686523 C-18.24777228 787.33716334 -19.43641017 786.63737247 -20.625 785.9375 C-21.87167017 785.21265404 -23.11891414 784.48879416 -24.36669922 783.76586914 C-26.95892024 782.26304521 -29.54862203 780.75600828 -32.13671875 779.24609375 C-38.1085086 775.76741025 -44.11932267 772.35720035 -50.125 768.9375 C-60.17325897 763.20345628 -70.19829042 757.4296242 -80.21582031 751.64208984 C-91.611459 745.06211643 -103.03889357 738.53808628 -114.46777344 732.01611328 C-120.89603046 728.34748397 -127.32147645 724.67393227 -133.74743652 721.00128174 C-135.4956693 720.00212586 -137.24392088 719.00300291 -138.9921875 718.00390625 C-139.56928467 717.67410767 -140.14638184 717.34430908 -140.7409668 717.0045166 C-144.26048502 714.9933984 -147.78065826 712.98343185 -151.30133057 710.97433472 C-164.29103355 703.56160337 -177.26572044 696.12388912 -190.21582031 688.64208984 C-201.611459 682.06211643 -213.03889357 675.53808628 -224.46777344 669.01611328 C-230.89603046 665.34748397 -237.32147645 661.67393227 -243.74743652 658.00128174 C-245.4956693 657.00212586 -247.24392088 656.00300291 -248.9921875 655.00390625 C-249.85783325 654.50920837 -249.85783325 654.50920837 -250.7409668 654.0045166 C-254.26048502 651.9933984 -257.78065826 649.98343185 -261.30133057 647.97433472 C-274.28021403 640.56777767 -287.2461162 633.13970055 -300.18286133 625.65966797 C-305.91020635 622.35061288 -311.64574919 619.05677912 -317.39453125 615.78515625 C-318.01528534 615.43162079 -318.63603943 615.07808533 -319.27560425 614.71383667 C-322.25701869 613.01602802 -325.23963195 611.32045041 -328.22460938 609.62890625 C-330.34047967 608.42485439 -332.44681834 607.2038066 -334.5405823 605.96171141 C-337.94078728 603.96535778 -337.94078728 603.96535778 -341.41857278 602.44786882 C-350.2566763 598.0618359 -350.2566763 598.0618359 -352.20442319 592.65916348 C-352.68470856 588.37118172 -352.73594531 584.25019851 -352.65078735 579.94421387 C-352.66577576 578.29715643 -352.68642912 576.65014249 -352.71224153 575.00321913 C-352.76646439 570.48632345 -352.73972354 565.97300215 -352.69942069 561.4560945 C-352.66999514 556.58189925 -352.71541242 551.70831705 -352.75115967 546.83424377 C-352.80896801 537.28972828 -352.79648148 527.74654161 -352.75879534 518.20197403 C-352.72943598 510.44516158 -352.72545443 502.68872158 -352.73960495 494.93186951 C-352.74259299 493.27590636 -352.74259299 493.27590636 -352.7456414 491.58648941 C-352.74979783 489.34378442 -352.7540126 487.10107954 -352.75828509 484.85837477 C-352.79535561 463.8282604 -352.75273293 442.79888268 -352.68288033 421.76888913 C-352.6247985 403.72397514 -352.63488683 385.68014828 -352.69482422 367.63525391 C-352.76439436 346.6804853 -352.79178506 325.72636235 -352.75186479 304.77149439 C-352.74772365 302.53703986 -352.74363683 300.30258522 -352.73960495 298.06813049 C-352.73759937 296.9687361 -352.73559379 295.8693417 -352.73352743 294.73663232 C-352.72230271 286.98909442 -352.74124871 279.24196605 -352.77183914 271.49449158 C-352.80830067 262.05252538 -352.7984372 252.61196397 -352.72918947 243.17015874 C-352.69501869 238.35224187 -352.68163995 233.53666671 -352.72462845 228.71876717 C-352.7633991 224.30685403 -352.74206226 219.89944927 -352.67292027 215.48794514 C-352.65840802 213.8932122 -352.6657719 212.29809755 -352.69730552 210.70361036 C-352.78501102 205.90005426 -352.6526258 201.57752137 -351 197 C-347.04199647 193.25510061 -342.97632339 191.23968788 -338 189 C-336.02525759 187.90040403 -334.05858394 186.78600505 -332.10546875 185.6484375 C-330.13400323 184.55514174 -328.16131145 183.46405476 -326.1875 182.375 C-317.80073384 177.7132389 -309.46424776 172.97943807 -301.1875 168.125 C-292.57097604 163.07307741 -283.92579446 158.07433203 -275.25 153.125 C-274.3735231 152.62495453 -274.3735231 152.62495453 -273.4793396 152.11480713 C-270.5080802 150.4199651 -267.53636728 148.72592016 -264.56445312 147.03222656 C-259.28888953 144.02519137 -254.0172894 141.01122063 -248.74542236 137.99771118 C-245.83299369 136.33292064 -242.92042775 134.66837035 -240.0078125 133.00390625 C-239.14215164 132.50920082 -239.14215164 132.50920082 -238.25900269 132.00450134 C-234.73949621 129.99338547 -231.21933188 127.98342622 -227.69866943 125.97433472 C-215.78423855 119.17522042 -203.87811196 112.36246827 -192 105.5 C-179.53397777 98.29787206 -167.03638756 91.15170324 -154.53222656 84.01611328 C-151.01819321 82.01064186 -147.50504842 80.003618 -143.9921875 77.99609375 C-143.41509033 77.66629517 -142.83799316 77.33649658 -142.2434082 76.9967041 C-140.49559043 75.99782905 -138.74779145 74.99892111 -137 74 C-130.56703896 70.32334818 -124.13405828 66.64673593 -117.69866943 62.97433472 C-105.78423855 56.17522042 -93.87811196 49.36246827 -82 42.5 C-70.15352532 35.65580987 -58.27922584 28.8610011 -46.39649963 22.08004761 C-40.10709301 18.49094431 -33.81997444 14.89783993 -27.53289795 11.30465698 C-18.91866698 6.38156772 -18.91866698 6.38156772 -15.72802734 4.57617188 C-14.08764655 3.62840935 -12.46203667 2.6532769 -10.86962891 1.62695312 C-6.73596737 -1.01515777 -4.71217662 -1.16486896 0 0 Z " fill="#DBEDE1" transform="translate(599,1073)"/>
</svg>
